<svg xmlns="http://www.w3.org/2000/svg" width="76.006" height="24" viewBox="0 0 76.006 24">
  <path id="logo-cmb" d="M1327.21,33.136c-14.53-1.7-10.92-22.393,4.17-23.894,2.51-.25,7.71.718,7.71,1.435,0,.162-.87,5.841-.97,6.345l-.07.315-.85-.8c-4.67-4.374-12.33-.732-12.32,5.86.01,5.429,5.48,7.22,10.84,3.545.84-.578,1.1-.711,1.1-.559,0,.218-.87,5.846-.96,6.253-.2.855-5.82,1.831-8.65,1.5Zm10.75-.506c0-.055,3.12-9.6,6.34-19.394l1.1-3.356,3.36-.03,3.37-.03.06.258c.03.142.59,3.323,1.24,7.069s1.21,6.835,1.24,6.863a12.779,12.779,0,0,0,.86-1.635l3.39-7.091,2.58-5.4,3.36-.03,3.35-.03.07,2.533c.04,1.393.12,5.708.18,9.587s.13,7.873.15,8.875l.03,1.82h-6.36l.05-7.111c.02-4.716,0-7.073-.07-7a21.606,21.606,0,0,0-.97,1.934c-.47,1-1.49,3.177-2.27,4.836s-1.87,3.988-2.43,5.177l-1.01,2.162-2.24.031-2.23.031-.11-.258c-.06-.142-.57-3.3-1.13-7.028s-1.05-6.821-1.07-6.884c-.06-.16-.03-.248-1.55,4.665-.75,2.441-1.68,5.41-2.05,6.6s-.73,2.328-.79,2.531l-.12.37h-3.17C1339.38,32.693,1337.96,32.665,1337.96,32.631Zm34.59-.12c0-.206,3.37-22.035,3.46-22.431l.06-.256h5.43c9.65,0,11.58.528,12.32,3.38.79,3.05-1.01,5.809-4.48,6.866l-.83.252,1.02.257c2.72.69,3.89,2.039,3.89,4.483-.01,3.909-2.37,6.345-6.94,7.177C1383.91,32.7,1372.55,32.926,1372.55,32.51Zm11.83-4.608a2.785,2.785,0,0,0,2.52-2.845v-.883l-.33-.341a3.925,3.925,0,0,0-2.72-.931c-1.91-.159-3.36-.141-3.43.044-.12.317-.81,5.029-.75,5.126A25.9,25.9,0,0,0,1384.38,27.9Zm.55-9.1c2.87-.61,3.38-3.988.66-4.418a18.13,18.13,0,0,0-3.85-.026c0,.051-.16,1.025-.34,2.164s-.35,2.148-.35,2.24C1381.05,18.969,1383.99,19,1384.93,18.8Z" transform="translate(-1317.998 -9.202)" fill="#212a87"/>
</svg>
