<svg xmlns="http://www.w3.org/2000/svg" xmlns:xlink="http://www.w3.org/1999/xlink" width="78" height="24" viewBox="0 0 78 24">
  <defs>
    <clipPath id="clip-path">
      <rect id="사각형_380" data-name="사각형 380" width="78" height="24" transform="translate(998.001 9.202)" fill="#fff"/>
    </clipPath>
  </defs>
  <g id="logo-dlive" transform="translate(-998 -9.202)" clip-path="url(#clip-path)">
    <path id="패스_922" data-name="패스 922" d="M1007.74,20.321a3.334,3.334,0,0,0-2.07-.494h-2.09v9.368h2.12a3.347,3.347,0,0,0,1.62-.32c2.07-.99,2.02-4.128,2.02-4.4C1009.34,24.326,1009.38,21.385,1007.74,20.321Zm6.93,6.8c-.28,1.138-1.17,4.623-4.89,5.686a15.884,15.884,0,0,1-4.45.394H998V15.751h5.979c.77,0,1.57.024,2.34.049,2.34.1,4.49.321,6.25,2,1.15,1.113,2.37,3.065,2.37,6.6a13.774,13.774,0,0,1-.27,2.718M1036.9,15.7h5.13V33.2h-5.13ZM1076,29.416V33.2h-14.05V15.751H1076v3.828h-8.47v3.006h7.79v3.785h-7.82v3.047Zm-15.19-13.665L1054.86,33.2h-5.81l-5.87-17.452h5.67l3.14,10.705,3.11-10.705Zm-18.77-1.46h-5.14V9.2a5.122,5.122,0,0,1,5.14,5.089ZM1035.35,28.8v4.4h-12.98V15.751h5.56V28.8Zm-19.49-13.051h5.13a5.016,5.016,0,0,1-.39,1.948,5.218,5.218,0,0,1-1.11,1.651,5.174,5.174,0,0,1-3.63,1.489Z" fill="#01b1c9"/>
  </g>
</svg>
