<svg xmlns="http://www.w3.org/2000/svg" width="128.436" height="18.853" viewBox="0 0 128.436 18.853">
  <g id="logo-lg" transform="translate(23556.717 13511.224)">
    <path id="패스_915" data-name="패스 915" d="M822.849,30.629a9.427,9.427,0,1,0-9.565-9.424A9.5,9.5,0,0,0,822.849,30.629Z" transform="translate(-24370 -13523)" fill="#a50034"/>
    <path id="패스_916" data-name="패스 916" d="M822.464,17.067v8.271h2.666v-.744h-1.9V17.067Zm-2.669,2.257a1.131,1.131,0,1,0-1.146-1.13A1.138,1.138,0,0,0,819.795,19.324Z" transform="translate(-24370 -13523)" fill="#fff"/>
    <path id="패스_917" data-name="패스 917" d="M823.232,13.314q-.191-.009-.381-.011a7.964,7.964,0,0,0-8.008,7.9,7.8,7.8,0,0,0,2.341,5.585,8.1,8.1,0,0,0,11.323,0,7.788,7.788,0,0,0,2.349-5.585v-.351h-5.718v.727h4.955c0,.016,0,.093,0,.113a7.284,7.284,0,0,1-12.371,4.57,7.07,7.07,0,0,1,0-10.119,7.261,7.261,0,0,1,5.132-2.095c.084,0,.287,0,.381,0Z" transform="translate(-24370 -13523)" fill="#fff"/>
    <path id="패스_918" data-name="패스 918" d="M839.607,14.95h-2.873V27.221h8.827V24.833h-5.954Zm12.277,7.595h2.341V24.69a6.714,6.714,0,0,1-2.074.324c-2.587,0-3.449-1.3-3.449-3.928,0-2.51.821-3.989,3.408-3.989a3.346,3.346,0,0,1,2.935,1.3l1.787-1.62a5.629,5.629,0,0,0-4.784-2c-4.024,0-6.138,2.167-6.138,6.3,0,4.11,1.909,6.337,6.118,6.337a9.251,9.251,0,0,0,4.845-1.194V20.256h-4.989v2.289Zm41.873-4.1c-3.158,0-4.5,1.472-4.5,4.451,0,2.793.961,4.5,4.136,4.5,3.072,0,4.514-1.439,4.514-4.418C897.911,20.074,896.949,18.449,893.757,18.449Zm-.309,7.177c-1.3,0-1.664-1-1.664-2.708,0-1.93.411-2.692,1.922-2.692,1.39,0,1.682,1.016,1.682,2.607C895.388,24.8,895.01,25.626,893.448,25.626Zm-12.705-2.912c0-2.437-1.115-4.265-3.879-4.265s-4.2,1.625-4.2,4.435c0,2.978,1.1,4.519,4.325,4.519a7.223,7.223,0,0,0,3.6-.9l-.464-1.608a6.564,6.564,0,0,1-2.694.643,2.619,2.619,0,0,1-1.8-.542,2.289,2.289,0,0,1-.481-1.523h5.595Zm-5.595-.812c.035-1.184.618-1.76,1.648-1.76,1.063,0,1.493.728,1.493,1.76ZM871.51,14.95V27.221h-2.642V22.126h-4.977v5.095h-2.643V14.95h2.643v5.027h4.977V14.95Zm12.751,0V27.221h-2.506V14.95Zm3.928,0V27.221h-2.506V14.95ZM923,18.643v8.578h-2.506V18.643Zm0-3.694v2.08h-2.506V14.95Zm-11.746,3.694v8.578h-2.506V18.643Zm0-3.694v2.08h-2.506V14.95Zm17.315,3.5c-3.158,0-4.5,1.473-4.5,4.451,0,2.793.961,4.5,4.136,4.5,3.072,0,4.514-1.439,4.514-4.418C932.72,20.074,931.758,18.449,928.567,18.449Zm-.31,7.177c-1.3,0-1.664-1-1.664-2.708,0-1.93.412-2.692,1.922-2.692,1.39,0,1.682,1.016,1.682,2.607C930.2,24.8,929.819,25.626,928.257,25.626Zm5.535-6.983v8.566h2.5V20.9a2.846,2.846,0,0,1,1.448-.441c1.224,0,1.482.475,1.482,1.427v5.319h2.5V21.3c0-1.716-.62-2.855-2.705-2.855a5.217,5.217,0,0,0-2.757.731v-.527Zm-14.353.58a7.669,7.669,0,0,0-3.4-.744c-2.418,0-3.7,1.015-3.7,2.587a2.607,2.607,0,0,0,2.382,2.639l.979.22c.874.186,1.423.474,1.423.9,0,.525-.549.8-1.338.8a6.453,6.453,0,0,1-2.881-.727l-.634,1.759a7.29,7.29,0,0,0,3.5.8c2.314,0,3.738-.9,3.738-2.774a2.275,2.275,0,0,0-1.835-2.266c-.291-.085-.823-.237-1.2-.321-.909-.186-1.818-.372-1.818-1.049,0-.507.549-.778,1.441-.778a5.731,5.731,0,0,1,2.641.626Zm-14.234-4.285-2.58,9.885h-.294l-2.58-9.885h-2.8L900.7,27.209h3.553L908,14.938Z" transform="translate(-24370 -13523)" fill="#6b6b6b"/>
  </g>
</svg>
