<svg xmlns="http://www.w3.org/2000/svg" xmlns:xlink="http://www.w3.org/1999/xlink" width="59" height="80" viewBox="0 0 59 80">
  <defs>
    <clipPath id="clip-path">
      <rect id="사각형_234" data-name="사각형 234" width="59" height="39" transform="translate(-23451 -15628)" fill="#fff" stroke="#707070" stroke-width="1"/>
    </clipPath>
    <clipPath id="clip-path-2">
      <rect id="사각형_235" data-name="사각형 235" width="59" height="39" transform="translate(-23450 -15552)" fill="#fff" stroke="#707070" stroke-width="1"/>
    </clipPath>
  </defs>
  <g id="ch-chview" transform="translate(23304 15653)">
    <g id="마스크_그룹_52" data-name="마스크 그룹 52" transform="translate(147 -25)" clip-path="url(#clip-path)">
      <g id="ch-view-w" transform="translate(-23450.221 -15627.282)">
        <path id="패스_523" data-name="패스 523" d="M40.437,25.249A11.429,11.429,0,1,1,28.991,13.966,11.344,11.344,0,0,1,40.437,25.249Z" fill="#fff"/>
        <path id="패스_524" data-name="패스 524" d="M.221,11.71l.728-.6,5.732,5.714-4.4-6.769.728-.6,5.186,8.025-1.146.946Z" fill="#fff"/>
        <path id="패스_525" data-name="패스 525" d="M16.89.537,17.909.282l.327,1.292-1.019.255L16.908.555Zm.619,2.438.983-.237,2.22,8.771-.964.255L17.49,2.975Z" fill="#fff"/>
        <path id="패스_526" data-name="패스 526" d="M35.65,8.216l.983.164-.218,1.328c-.236,1.4-1.092,1.674-1.929,1.529-.855-.146-1.583-.637-1.347-2.074l.983-5.969c.236-1.419,1.092-1.674,1.929-1.529s1.547.655,1.328,2.056l-.528,3.257L34.577,6.6,34.122,9.29c-.109.71.091,1,.491,1.074s.691-.146.8-.837l.218-1.31Zm.764-4.64c.127-.691-.109-1-.491-1.055-.4-.055-.692.164-.8.837l-.382,2.275,1.31.218Z" fill="#fff"/>
        <path id="패스_527" data-name="패스 527" d="M53.066,8.016l.691.546-4.385,6.769h.036l5.477-5.914,1.055.837L51.5,16.969h.036l5.532-5.841.71.546-6.605,6.9L50.1,17.715l4.567-6.878-.036-.036-5.6,6.1-1.055-.837L53.084,8Z" fill="#fff"/>
        <path id="패스_528" data-name="패스 528" d="M28.991,37.313h.164l1.146-.036A30.813,30.813,0,0,0,48.116,30.6l.055-.036s.036,0,.091-.073a6.639,6.639,0,0,0,2.729-5.222,6.763,6.763,0,0,0-2.729-5.259A30.929,30.929,0,0,0,30.3,13.2s-1.237-.036-1.292-.036l-1.256.036a30.991,30.991,0,0,0-18,6.806,6.753,6.753,0,0,0-2.748,5.259,6.578,6.578,0,0,0,2.748,5.222l.091.073L9.9,30.6a30.978,30.978,0,0,0,17.87,6.678l1.11.036h.146m-.182-3.6a34.06,34.06,0,0,1-18.379-5.368l-.073-.055-.036-.036a3.789,3.789,0,0,1-2-3.021,3.815,3.815,0,0,1,2-3.039c5.077-3.385,11.646-2.8,18.634-2.875,7.024.073,13.557-.528,18.634,2.875a3.833,3.833,0,0,1,2,3.039,3.756,3.756,0,0,1-1.983,3.021l-.073.036-.036.055A34.06,34.06,0,0,1,29.154,33.71Z" fill="#fff"/>
      </g>
    </g>
    <g id="마스크_그룹_53" data-name="마스크 그룹 53" transform="translate(146 -60)" clip-path="url(#clip-path-2)">
      <g id="ch-view" transform="translate(-23449.221 -15551.282)">
        <path id="패스_585" data-name="패스 585" d="M40.437,25.249A11.429,11.429,0,1,1,28.991,13.966,11.344,11.344,0,0,1,40.437,25.249Z" fill="#5858d9"/>
        <path id="패스_586" data-name="패스 586" d="M.221,11.71l.728-.6,5.732,5.714-4.4-6.769.728-.6,5.186,8.025-1.146.946Z" fill="#5858d9"/>
        <path id="패스_587" data-name="패스 587" d="M16.89.537,17.909.282l.328,1.292-1.019.255L16.908.555Zm.619,2.438.983-.237,2.22,8.771-.965.255L17.49,2.975Z" fill="#5858d9"/>
        <path id="패스_588" data-name="패스 588" d="M35.651,8.216l.983.164-.218,1.328c-.237,1.4-1.092,1.674-1.929,1.529-.855-.146-1.583-.637-1.347-2.074l.983-5.969c.237-1.419,1.092-1.674,1.929-1.529s1.547.655,1.328,2.056l-.528,3.257L34.577,6.6,34.122,9.29c-.109.71.091,1,.491,1.074s.691-.146.8-.837l.218-1.31Zm.764-4.64c.127-.691-.109-1-.491-1.055-.4-.055-.692.164-.8.837l-.382,2.275,1.31.218Z" fill="#5858d9"/>
        <path id="패스_589" data-name="패스 589" d="M53.066,8.016l.691.546-4.385,6.769h.036l5.477-5.914,1.056.837L51.5,16.969h.036l5.532-5.841.71.546-6.606,6.9L50.1,17.715l4.568-6.878-.036-.036-5.6,6.1-1.055-.837L53.084,8Z" fill="#5858d9"/>
        <path id="패스_590" data-name="패스 590" d="M28.991,37.313h.164l1.146-.036A30.813,30.813,0,0,0,48.116,30.6l.055-.036s.036,0,.091-.073a6.638,6.638,0,0,0,2.73-5.222,6.763,6.763,0,0,0-2.73-5.259A30.929,30.929,0,0,0,30.3,13.2s-1.237-.036-1.292-.036l-1.256.036a30.991,30.991,0,0,0-18,6.806,6.753,6.753,0,0,0-2.748,5.259,6.578,6.578,0,0,0,2.748,5.222l.091.073L9.9,30.6a30.979,30.979,0,0,0,17.87,6.678l1.11.036h.146m-.182-3.6a34.06,34.06,0,0,1-18.379-5.368l-.073-.055-.036-.036a3.789,3.789,0,0,1-2-3.021,3.815,3.815,0,0,1,2-3.039c5.077-3.385,11.646-2.8,18.634-2.875,7.024.073,13.557-.528,18.634,2.875a3.833,3.833,0,0,1,2,3.039,3.756,3.756,0,0,1-1.983,3.021l-.073.036-.036.055A34.06,34.06,0,0,1,29.154,33.71Z" fill="#5858d9"/>
      </g>
    </g>
  </g>
</svg>
