<svg xmlns="http://www.w3.org/2000/svg" xmlns:xlink="http://www.w3.org/1999/xlink" width="67" height="78" viewBox="0 0 67 78">
  <defs>
    <clipPath id="clip-path">
      <rect id="사각형_246" data-name="사각형 246" width="67" height="38" transform="translate(-22663 -15628)" fill="#fff" stroke="#707070" stroke-width="1"/>
    </clipPath>
    <clipPath id="clip-path-2">
      <rect id="사각형_247" data-name="사각형 247" width="67" height="38" transform="translate(-22664 -15550)" fill="#fff" stroke="#707070" stroke-width="1"/>
    </clipPath>
  </defs>
  <g id="ch-cinef" transform="translate(22679 15709)">
    <g id="마스크_그룹_64" data-name="마스크 그룹 64" transform="translate(-16 -81)" clip-path="url(#clip-path)">
      <g id="ch-cinef-w" transform="translate(-22662.975 -15627.789)">
        <path id="패스_573" data-name="패스 573" d="M64.923,2.813a2.452,2.452,0,0,0-.572-1.144,2.565,2.565,0,0,0-.97-.651A3.694,3.694,0,0,0,62.2.789h-.191a4.474,4.474,0,0,0-1.074.123,7.541,7.541,0,0,0-3.517,1.865,14.912,14.912,0,0,0-2.6,3.255,25.262,25.262,0,0,0-1.871,3.836c-.4,1.021-.589,1.636-.8,2.323-.052.141-.1.317-.156.475H49.243l-.364,1.214h2.686c-.243.686-2.547,7.9-2.737,8.5-.485,1.513-1,3.026-1.559,4.5a25.912,25.912,0,0,1-1.906,4.012,14.23,14.23,0,0,1-2.374,3.044A6,6,0,0,1,40.13,35.5a6.078,6.078,0,0,1-1.178.141,2.535,2.535,0,0,1-1.438-.387A3.125,3.125,0,0,1,36.3,33.252a3.038,3.038,0,0,1,.312-2.235,2.956,2.956,0,0,1,1.819-1.337l.277-.07-.069-.282-.052-.229-.052-.246h-.277a3.683,3.683,0,0,0-.606.053c-.225.035-.485.07-.762.141a5.509,5.509,0,0,0-1.542.6,4.846,4.846,0,0,0-1.265,1.021,4.214,4.214,0,0,0-.78,1.39,3.69,3.69,0,0,0,.953,3.572,4.656,4.656,0,0,0,1.681.932,6.752,6.752,0,0,0,1.8.246h.173a9.338,9.338,0,0,0,1.923-.211,12.388,12.388,0,0,0,4.522-1.918,15.374,15.374,0,0,0,3.344-3.22,22.313,22.313,0,0,0,2.443-4.117c.676-1.478,1.282-3.026,1.819-4.575.537-1.566,2.3-7.566,2.755-8.868h7.294l.416-1.214H55.134c.121-.352.243-.757.381-1.214.208-.669.433-1.425.71-2.217.26-.792.572-1.619.9-2.446.346-.827.71-1.6,1.091-2.3A8.474,8.474,0,0,1,59.431,2.76a2.42,2.42,0,0,1,1.23-.809c.069,0,.156-.018.225-.018a.828.828,0,0,1,.52.194,1.863,1.863,0,0,1,.5,1.021,4.028,4.028,0,0,1,.087,1.2,6.3,6.3,0,0,1-.19,1.144l-.1.387h.4a2.852,2.852,0,0,0,.589-.07,3.324,3.324,0,0,0,1.785-.985,2.108,2.108,0,0,0,.485-2.006Z" fill="#fff"/>
        <path id="패스_574" data-name="패스 574" d="M10.417,15.622a3.156,3.156,0,0,0-2.529-1.108c-2.218,0-3.864,1.83-3.864,4.364s1.629,4.346,3.76,4.346a3.2,3.2,0,0,0,2.755-1.443l2.443,1.847a5.8,5.8,0,0,1-4.816,2.358,6.8,6.8,0,0,1-7.19-7.108,6.8,6.8,0,0,1,7.19-7.109,5.631,5.631,0,0,1,4.487,1.988L10.4,15.622Z" fill="#fff"/>
        <path id="패스_575" data-name="패스 575" d="M14.558,12.12h2.928V25.651H14.558Z" fill="#fff"/>
        <path id="패스_576" data-name="패스 576" d="M20.171,12.12h3.985l5.665,9.4h.035v-9.4H32.8V25.651H28.955l-5.821-9.625H23.1v9.625H20.171Z" fill="#fff"/>
        <path id="패스_577" data-name="패스 577" d="M35.608,12.12h9.044v2.745H38.536v2.516h5.769v2.745H38.536v2.745H45v2.745h-9.39V12.12Z" fill="#fff"/>
      </g>
    </g>
    <g id="마스크_그룹_65" data-name="마스크 그룹 65" transform="translate(-15 -119)" clip-path="url(#clip-path-2)">
      <g id="ch-cinef-2" data-name="ch-cinef" transform="translate(-22663.475 -15549.789)">
        <path id="패스_628" data-name="패스 628" d="M64.423,2.813a2.452,2.452,0,0,0-.572-1.144,2.565,2.565,0,0,0-.97-.651A3.694,3.694,0,0,0,61.7.789h-.191a4.474,4.474,0,0,0-1.074.123,7.541,7.541,0,0,0-3.517,1.865,14.912,14.912,0,0,0-2.6,3.255,25.262,25.262,0,0,0-1.871,3.836c-.4,1.021-.589,1.636-.8,2.323-.052.141-.1.317-.156.475H48.743l-.364,1.214h2.686c-.243.686-2.547,7.9-2.737,8.5-.485,1.513-1,3.026-1.559,4.5a25.912,25.912,0,0,1-1.906,4.012,14.23,14.23,0,0,1-2.374,3.044A6,6,0,0,1,39.63,35.5a6.078,6.078,0,0,1-1.178.141,2.535,2.535,0,0,1-1.438-.387A3.125,3.125,0,0,1,35.8,33.252a3.038,3.038,0,0,1,.312-2.235,2.956,2.956,0,0,1,1.819-1.337l.277-.07-.069-.282-.052-.229-.052-.246h-.277a3.683,3.683,0,0,0-.606.053c-.225.035-.485.07-.762.141a5.509,5.509,0,0,0-1.542.6,4.846,4.846,0,0,0-1.265,1.021,4.214,4.214,0,0,0-.78,1.39,3.69,3.69,0,0,0,.953,3.572,4.656,4.656,0,0,0,1.681.932,6.752,6.752,0,0,0,1.8.246h.173a9.338,9.338,0,0,0,1.923-.211,12.388,12.388,0,0,0,4.522-1.918,15.374,15.374,0,0,0,3.344-3.22,22.313,22.313,0,0,0,2.443-4.117c.676-1.478,1.282-3.026,1.819-4.575C52,21.2,53.768,15.2,54.218,13.9h7.294l.416-1.214H54.634c.121-.352.243-.757.381-1.214.208-.669.433-1.425.71-2.217.26-.792.572-1.619.9-2.446.346-.827.71-1.6,1.091-2.3A8.474,8.474,0,0,1,58.931,2.76a2.42,2.42,0,0,1,1.23-.809c.069,0,.156-.018.225-.018a.828.828,0,0,1,.52.194,1.863,1.863,0,0,1,.5,1.021,4.028,4.028,0,0,1,.087,1.2,6.3,6.3,0,0,1-.19,1.144l-.1.387h.4a2.852,2.852,0,0,0,.589-.07,3.324,3.324,0,0,0,1.785-.985,2.108,2.108,0,0,0,.485-2.006Z" fill="#ec008c"/>
        <path id="패스_629" data-name="패스 629" d="M9.917,15.622a3.157,3.157,0,0,0-2.53-1.108c-2.218,0-3.864,1.83-3.864,4.364s1.629,4.346,3.76,4.346a3.2,3.2,0,0,0,2.755-1.443l2.443,1.847a5.8,5.8,0,0,1-4.816,2.358,6.8,6.8,0,0,1-7.19-7.108,6.8,6.8,0,0,1,7.19-7.109,5.631,5.631,0,0,1,4.487,1.988L9.9,15.622Z" fill="#ec008c"/>
        <path id="패스_630" data-name="패스 630" d="M14.058,12.12h2.928V25.651H14.058Z" fill="#ec008c"/>
        <path id="패스_631" data-name="패스 631" d="M19.671,12.12h3.985l5.665,9.4h.035v-9.4H32.3V25.651H28.455l-5.821-9.625H22.6v9.625H19.671Z" fill="#ec008c"/>
        <path id="패스_632" data-name="패스 632" d="M35.108,12.12h9.044v2.745H38.036v2.516h5.769v2.745H38.036v2.745H44.5v2.745h-9.39V12.12Z" fill="#ec008c"/>
      </g>
    </g>
  </g>
</svg>
