<svg xmlns="http://www.w3.org/2000/svg" width="103" height="38" viewBox="0 0 103 38">
  <g id="ch-dramacube" transform="translate(22233 14668.797)">
    <g id="그룹_200" data-name="그룹 200" transform="translate(-331.998 331)">
      <path id="패스_983" data-name="패스 983" d="M282.287,122.7c0,1.728-1.026,2.933-2.5,2.933a2.1,2.1,0,0,1-2.3-2.311v-9.5h-2.674v9.719a4.184,4.184,0,0,0,4.28,4.462,4.359,4.359,0,0,0,3.353-1.428l-.012,1.306h2.529V113.814h-2.674Z" transform="translate(-22106.004 -15089.798)" fill="#c2c2c2"/>
      <path id="패스_984" data-name="패스 984" d="M292.18,113.661a4.419,4.419,0,0,0-3.2,1.287V110H286.31v17.877h2.674v-1.169a4.309,4.309,0,0,0,3.2,1.292,4.185,4.185,0,0,0,4.279-4.462v-5.41a4.183,4.183,0,0,0-4.279-4.462Zm1.605,4.7v4.954a2.09,2.09,0,0,1-2.28,2.311,2.652,2.652,0,0,1-2.521-2.933v-3.734a2.616,2.616,0,0,1,2.521-2.909A2.064,2.064,0,0,1,293.785,118.364Z" transform="translate(-22106.004 -15089.798)" fill="#c2c2c2"/>
      <path id="패스_985" data-name="패스 985" d="M305.338,123.62l-.019.179c-.135,1.217-.855,1.782-2.522,1.782s-2.5-.825-2.5-2.6V121.7h7.692v-3.337c0-2.9-1.99-4.7-5.2-4.7s-5.172,1.8-5.172,4.7v4.954c0,2.886,1.981,4.68,5.172,4.68s5.046-1.556,5.194-4.166l.011-.214h-2.664Zm-.021-4.285H300.3V118.7c0-1.789.793-2.621,2.5-2.621s2.522.832,2.522,2.621Z" transform="translate(-22106.004 -15089.798)" fill="#c2c2c2"/>
      <path id="패스_986" data-name="패스 986" d="M271.218,123.142l-.011.188a2.091,2.091,0,0,1-2.4,2.251,2.309,2.309,0,0,1-2.5-2.6V118.7c0-1.739.767-2.621,2.28-2.621,1.612,0,2.389.587,2.522,1.9l.019.181h2.614l-.007-.209c-.1-2.685-2.021-4.288-5.146-4.288s-4.954,1.846-4.954,4.7v.711L266.5,127.6a6.422,6.422,0,0,0,2.308.4c3.1,0,5.049-1.782,5.075-4.654v-.205h-2.662Z" transform="translate(-22106.004 -15089.798)" fill="#c2c2c2"/>
      <path id="패스_987" data-name="패스 987" d="M205,113.814h5.025c4.961,0,7.559,2.817,7.559,7.032s-2.6,7.031-7.559,7.031H205Zm5.189,11.525c3.27,0,4.742-1.764,4.742-4.493s-1.472-4.472-4.742-4.472h-2.529v8.965Z" transform="translate(-22106.004 -15089.798)" fill="#f47735"/>
      <path id="패스_988" data-name="패스 988" d="M257.516,113.814l-4.545,13.521V113.814h-3.208l-2.819,10.249-2.818-10.249h-3.32v13.519l-4.543-13.519h-3.118L228.6,127.331l-2.733-4.9a4.42,4.42,0,0,0-1.439-8.613h-5.678v14.061h2.66v-5.207h1.512l2.9,5.207h5.251l.93-2.767H237.4l.931,2.767h5.139v-9.486l2.46,8.942h1.926l2.46-8.946v9.49h5.139l.931-2.767h5.39l.931,2.767h2.66l-4.726-14.061ZM224.23,120.12h-2.818v-3.758h2.818a1.879,1.879,0,1,1,0,3.758Zm8.559,2.663,1.914-5.692,1.914,5.692Zm24.371,0,1.914-5.692,1.914,5.692Z" transform="translate(-22106.004 -15089.798)" fill="#f47735"/>
    </g>
    <g id="그룹_201" data-name="그룹 201" transform="translate(-332.002 202)">
      <path id="패스_1041" data-name="패스 1041" d="M282.289,231.7c0,1.728-1.026,2.933-2.5,2.933a2.1,2.1,0,0,1-2.3-2.311v-9.5h-2.674v9.719a4.183,4.183,0,0,0,4.279,4.462,4.359,4.359,0,0,0,3.353-1.428l-.012,1.306h2.529V222.814h-2.674Z" transform="translate(-22106.004 -15089.798)" fill="#fff"/>
      <path id="패스_1042" data-name="패스 1042" d="M292.182,222.661a4.42,4.42,0,0,0-3.2,1.287V219h-2.674v17.877h2.674v-1.169a4.309,4.309,0,0,0,3.2,1.292,4.184,4.184,0,0,0,4.279-4.462v-5.41a4.183,4.183,0,0,0-4.279-4.462Zm1.606,4.7v4.954a2.09,2.09,0,0,1-2.28,2.311,2.652,2.652,0,0,1-2.522-2.933v-3.734a2.617,2.617,0,0,1,2.522-2.909A2.065,2.065,0,0,1,293.788,227.364Z" transform="translate(-22106.004 -15089.798)" fill="#fff"/>
      <path id="패스_1043" data-name="패스 1043" d="M305.34,232.62l-.019.179c-.135,1.217-.854,1.782-2.521,1.782s-2.5-.825-2.5-2.6V230.7h7.691v-3.337c0-2.9-1.99-4.7-5.2-4.7s-5.173,1.8-5.173,4.7v4.954c0,2.886,1.981,4.68,5.173,4.68s5.046-1.556,5.193-4.166l.012-.214H305.34Zm-.021-4.285H300.3V227.7c0-1.789.794-2.621,2.5-2.621s2.522.832,2.522,2.621Z" transform="translate(-22106.004 -15089.798)" fill="#fff"/>
      <path id="패스_1044" data-name="패스 1044" d="M271.221,232.142l-.012.188a2.091,2.091,0,0,1-2.4,2.251,2.309,2.309,0,0,1-2.5-2.6V227.7c0-1.739.767-2.621,2.28-2.621,1.612,0,2.389.587,2.522,1.9l.019.181h2.615l-.008-.209c-.1-2.685-2.02-4.288-5.146-4.288s-4.953,1.846-4.953,4.7v.711l2.864,8.522a6.414,6.414,0,0,0,2.308.4c3.1,0,5.049-1.782,5.075-4.654v-.2h-2.662Z" transform="translate(-22106.004 -15089.798)" fill="#fff"/>
      <path id="패스_1045" data-name="패스 1045" d="M205.005,222.814h5.025c4.96,0,7.558,2.817,7.558,7.032s-2.6,7.031-7.558,7.031h-5.025Zm5.189,11.525c3.27,0,4.742-1.764,4.742-4.493s-1.472-4.472-4.742-4.472h-2.529v8.965Z" transform="translate(-22106.004 -15089.798)" fill="#fff"/>
      <path id="패스_1046" data-name="패스 1046" d="M257.519,222.814l-4.545,13.521V222.814h-3.209l-2.818,10.249-2.819-10.249h-3.32v13.519l-4.543-13.519h-3.118L228.6,236.331l-2.734-4.9a4.42,4.42,0,0,0-1.439-8.613h-5.678v14.061h2.66v-5.207h1.513l2.9,5.207h5.25l.931-2.767h5.39l.931,2.767h5.139v-9.486l2.46,8.942h1.926l2.46-8.946v9.49h5.139l.931-2.767h5.391l.931,2.767h2.659l-4.725-14.061Zm-33.286,6.306h-2.819v-3.758h2.819a1.879,1.879,0,1,1,0,3.758Zm8.558,2.663,1.914-5.692,1.914,5.692Zm24.372,0,1.914-5.692,1.914,5.692Z" transform="translate(-22106.004 -15089.798)" fill="#fff"/>
    </g>
  </g>
</svg>
