<svg xmlns="http://www.w3.org/2000/svg" xmlns:xlink="http://www.w3.org/1999/xlink" width="40" height="118" viewBox="0 0 40 118">
  <defs>
    <clipPath id="clip-path">
      <rect id="사각형_230" data-name="사각형 230" width="40" height="58" transform="translate(-23670 -15638)" fill="#fff" stroke="#707070" stroke-width="1"/>
    </clipPath>
    <clipPath id="clip-path-2">
      <rect id="사각형_231" data-name="사각형 231" width="40" height="58" transform="translate(-23671 -15562)" fill="#fff" stroke="#707070" stroke-width="1"/>
    </clipPath>
  </defs>
  <g id="ch-echannel" transform="translate(23671 15716)">
    <g id="마스크_그룹_48" data-name="마스크 그룹 48" transform="translate(-1 -78)" clip-path="url(#clip-path)">
      <g id="ch-echannel-w" transform="translate(-23669.166 -15637.643)">
        <path id="패스_512" data-name="패스 512" d="M8.732,9.92h.036A.017.017,0,0,0,8.785,9.9a3.371,3.371,0,0,0,1.7-3.8L9.142,2.676A3.923,3.923,0,0,0,3.7,1.177H3.665A3.848,3.848,0,0,0,2.273,6.583L4.557,9.474A3.407,3.407,0,0,0,8.732,9.92Z" fill="#fff"/>
        <path id="패스_513" data-name="패스 513" d="M27.414,34.6H13.907V30.439H27.431a4.937,4.937,0,0,0,3.64-1.231,3.838,3.838,0,0,0,0-5.281,4.937,4.937,0,0,0-3.64-1.231H13.907V18.538H27.414c4.264,0,4.728-2.73,4.728-3.89,0-2.355-1.838-3.872-4.693-3.872H14.46a8.763,8.763,0,0,0-6.673,2.712c-2.3,2.5-3.479,6.762-3.479,12.686,0,11.1,3.14,16.094,10.153,16.2h12.99c2.855,0,4.693-1.535,4.693-3.89C32.142,37.327,31.678,34.614,27.414,34.6Z" fill="#fff"/>
        <path id="패스_514" data-name="패스 514" d="M3.5,53.849H5.2v1.2c0,1.374-1.088,1.909-2.48,1.909S.167,56.419.167,55.045V50.12c0-1.374,1.106-1.909,2.516-1.909S5.2,48.746,5.2,50.12v.928H3.521v-.7c0-.446-.357-.7-.839-.7s-.839.25-.839.7v4.461c0,.446.339.7.839.7s.821-.25.821-.7Z" fill="#fff"/>
        <path id="패스_515" data-name="패스 515" d="M5.7,48.389H7.376v3.337H9.053V48.389H10.73v8.368H9.053v-3.6H7.376v3.6H5.7Z" fill="#fff"/>
        <path id="패스_516" data-name="패스 516" d="M12.942,55.223l-.25,1.535H11.033l1.392-8.368h2.783l1.41,8.368h-1.7l-.25-1.535Zm.856-5.549-.66,4.122h1.32Z" fill="#fff"/>
        <path id="패스_517" data-name="패스 517" d="M21.954,48.389v8.368H20.312l-1.82-4.835v4.835H16.886V48.389h1.642l1.82,4.871V48.389Z" fill="#fff"/>
        <path id="패스_518" data-name="패스 518" d="M27.717,48.389v8.368H26.075l-1.82-4.835v4.835H22.649V48.389h1.641l1.82,4.871V48.389Z" fill="#fff"/>
        <path id="패스_519" data-name="패스 519" d="M28.412,56.758V48.389h4.461v1.463h-2.8V51.8h2.694v1.392H30.072v2.105h2.891v1.463h-4.55Z" fill="#fff"/>
        <path id="패스_520" data-name="패스 520" d="M35.1,55.259h2.73v1.5H33.373V48.389h1.749v6.869Z" fill="#fff"/>
      </g>
    </g>
    <g id="마스크_그룹_49" data-name="마스크 그룹 49" transform="translate(0 -94)" clip-path="url(#clip-path-2)">
      <g id="ch-echannel-2" data-name="ch-echannel" transform="translate(-23670.166 -15561.643)">
        <path id="패스_512-2" data-name="패스 512" d="M8.732,9.92h.036A.017.017,0,0,0,8.785,9.9a3.371,3.371,0,0,0,1.7-3.8L9.142,2.676A3.923,3.923,0,0,0,3.7,1.177H3.665A3.848,3.848,0,0,0,2.273,6.583L4.557,9.474A3.407,3.407,0,0,0,8.732,9.92Z" fill="#f9ae04"/>
        <path id="패스_513-2" data-name="패스 513" d="M27.414,34.6H13.907V30.439H27.431a4.937,4.937,0,0,0,3.64-1.231,3.838,3.838,0,0,0,0-5.281,4.937,4.937,0,0,0-3.64-1.231H13.907V18.538H27.414c4.264,0,4.728-2.73,4.728-3.89,0-2.355-1.838-3.872-4.693-3.872H14.46a8.763,8.763,0,0,0-6.673,2.712c-2.3,2.5-3.479,6.762-3.479,12.686,0,11.1,3.14,16.094,10.153,16.2h12.99c2.855,0,4.693-1.535,4.693-3.89C32.142,37.327,31.678,34.614,27.414,34.6Z" fill="#e41321"/>
        <path id="패스_514-2" data-name="패스 514" d="M3.5,53.849H5.2v1.2c0,1.374-1.088,1.909-2.48,1.909S.167,56.419.167,55.045V50.12c0-1.374,1.106-1.909,2.516-1.909S5.2,48.746,5.2,50.12v.928H3.521v-.7c0-.446-.357-.7-.839-.7s-.839.25-.839.7v4.461c0,.446.339.7.839.7s.821-.25.821-.7Z" fill="#86888c"/>
        <path id="패스_515-2" data-name="패스 515" d="M5.7,48.389H7.376v3.337H9.053V48.389H10.73v8.368H9.053v-3.6H7.376v3.6H5.7Z" fill="#86888c"/>
        <path id="패스_516-2" data-name="패스 516" d="M12.942,55.223l-.25,1.535H11.033l1.392-8.368h2.783l1.41,8.368h-1.7l-.25-1.535Zm.856-5.549-.66,4.122h1.32Z" fill="#86888c"/>
        <path id="패스_517-2" data-name="패스 517" d="M21.954,48.389v8.368H20.312l-1.82-4.835v4.835H16.886V48.389h1.642l1.82,4.871V48.389Z" fill="#86888c"/>
        <path id="패스_518-2" data-name="패스 518" d="M27.717,48.389v8.368H26.075l-1.82-4.835v4.835H22.649V48.389h1.641l1.82,4.871V48.389Z" fill="#86888c"/>
        <path id="패스_519-2" data-name="패스 519" d="M28.412,56.758V48.389h4.461v1.463h-2.8V51.8h2.694v1.392H30.072v2.105h2.891v1.463h-4.55Z" fill="#86888c"/>
        <path id="패스_520-2" data-name="패스 520" d="M35.1,55.259h2.73v1.5H33.373V48.389h1.749v6.869Z" fill="#86888c"/>
      </g>
    </g>
  </g>
</svg>
