<svg xmlns="http://www.w3.org/2000/svg" xmlns:xlink="http://www.w3.org/1999/xlink" width="82" height="44" viewBox="0 0 82 44">
  <defs>
    <clipPath id="clip-path">
      <rect id="사각형_242" data-name="사각형 242" width="82" height="21" transform="translate(-22939 -15619)" fill="#fff" stroke="#707070" stroke-width="1"/>
    </clipPath>
    <clipPath id="clip-path-2">
      <rect id="사각형_243" data-name="사각형 243" width="82" height="21" transform="translate(-22939 -15542)" fill="#fff" stroke="#707070" stroke-width="1"/>
    </clipPath>
  </defs>
  <g id="ch-ever" transform="translate(22963 15714)">
    <g id="마스크_그룹_60" data-name="마스크 그룹 60" transform="translate(-24 -95)" clip-path="url(#clip-path)">
      <g id="ch-ever-w" transform="translate(-22938.227 -15618.515)">
        <path id="패스_558" data-name="패스 558" d="M23.378.522c-5.179,0-8.807,4.2-8.807,9.28v.076a8.908,8.908,0,0,0,9.3,9.2,8.9,8.9,0,0,0,7.276-3.326L28.254,13.2a5.814,5.814,0,0,1-4.309,1.833,4.11,4.11,0,0,1-4.347-3.5H32c.038-.472.076-.926.076-1.323C32.034,5.153,29.312.522,23.378.522ZM19.522,8.366c.4-2.287,1.758-3.78,3.856-3.78s3.459,1.531,3.761,3.78Z" fill="#fff"/>
        <path id="패스_559" data-name="패스 559" d="M58.342.522c-5.179,0-8.807,4.177-8.807,9.261v.076a8.908,8.908,0,0,0,9.3,9.2,8.9,8.9,0,0,0,7.276-3.326l-2.892-2.551a5.814,5.814,0,0,1-4.309,1.833,4.11,4.11,0,0,1-4.347-3.5h12.4c.038-.472.076-.926.076-1.323C67.017,5.153,64.3.522,58.342.522ZM54.486,8.366c.4-2.287,1.758-3.78,3.856-3.78S61.8,6.117,62.1,8.366Z" fill="#fff"/>
        <path id="패스_560" data-name="패스 560" d="M74.1,4.453V.863h-6.01v.888s.907.076.964,2.117V15.68C69,17.721,68.095,17.8,68.095,17.8v.888H73.33a.766.766,0,0,0,.775-.775v-5.8c0-4.252,2.06-6.275,5.405-6.275h.265V.522C76.789.39,75.126,1.978,74.086,4.435Z" fill="#fff"/>
        <path id="패스_561" data-name="패스 561" d="M50.707,1.751V.862H45.453a.851.851,0,0,0-.813.586l-3.818,11.34L37.043,1.467a.874.874,0,0,0-.832-.6h-5.33v.888s.869-.265,1.8,2.1l5.84,14.95H43.11L49.025,3.641c.888-2.136,1.7-1.89,1.7-1.89Z" fill="#fff"/>
        <path id="패스_562" data-name="패스 562" d="M5.272,5.172a1.462,1.462,0,0,1-1.55,1.077c-1.1,0-1.739-.718-1.739-1.966s.624-1.966,1.7-1.966A1.557,1.557,0,0,1,5.272,3.376l.038.132,1.625-.643L6.9,2.752A3.248,3.248,0,0,0,3.684.636,3.382,3.382,0,0,0,.226,4.3a3.375,3.375,0,0,0,3.5,3.648A3.182,3.182,0,0,0,6.916,5.8l.038-.113L5.31,5.058l-.038.132Z" fill="#fff"/>
        <path id="패스_563" data-name="패스 563" d="M11.508.844V3.376H9.165V.844H7.407V7.78H9.165V5.02h2.344V7.78h1.758V.844Z" fill="#fff"/>
      </g>
    </g>
    <g id="마스크_그룹_61" data-name="마스크 그룹 61" transform="translate(-24 -149)" clip-path="url(#clip-path-2)">
      <g id="ch-ever-2" data-name="ch-ever" transform="translate(-22938.727 -15541.515)">
        <path id="패스_613" data-name="패스 613" d="M23.878.522c-5.179,0-8.807,4.2-8.807,9.28v.076a8.908,8.908,0,0,0,9.3,9.2,8.9,8.9,0,0,0,7.276-3.326L28.754,13.2a5.813,5.813,0,0,1-4.309,1.833,4.11,4.11,0,0,1-4.347-3.5H32.5c.038-.472.076-.926.076-1.323C32.535,5.153,29.813.522,23.878.522ZM20.023,8.366c.4-2.287,1.758-3.78,3.856-3.78s3.459,1.531,3.761,3.78Z" fill="#c7101a"/>
        <path id="패스_614" data-name="패스 614" d="M58.843.522c-5.179,0-8.807,4.177-8.807,9.261v.076a8.908,8.908,0,0,0,9.3,9.2,8.9,8.9,0,0,0,7.276-3.326l-2.892-2.551a5.814,5.814,0,0,1-4.309,1.833,4.11,4.11,0,0,1-4.347-3.5h12.4c.038-.472.076-.926.076-1.323C67.518,5.153,64.8.522,58.843.522ZM54.987,8.366c.4-2.287,1.758-3.78,3.856-3.78S62.3,6.117,62.6,8.366Z" fill="#c7101a"/>
        <path id="패스_615" data-name="패스 615" d="M74.606,4.453V.863H68.6v.888s.907.076.964,2.117V15.68C69.5,17.721,68.6,17.8,68.6,17.8v.888h5.235a.766.766,0,0,0,.775-.775v-5.8c0-4.252,2.06-6.275,5.405-6.275h.265V.522C77.289.39,75.626,1.978,74.587,4.435Z" fill="#c7101a"/>
        <path id="패스_616" data-name="패스 616" d="M51.208,1.751V.862H45.954a.851.851,0,0,0-.813.586l-3.818,11.34L37.544,1.467a.874.874,0,0,0-.832-.6h-5.33v.888s.869-.265,1.8,2.1l5.84,14.95h4.593L49.526,3.641c.888-2.136,1.7-1.89,1.7-1.89Z" fill="#c7101a"/>
        <path id="패스_617" data-name="패스 617" d="M5.773,5.172a1.462,1.462,0,0,1-1.55,1.077c-1.1,0-1.739-.718-1.739-1.966s.624-1.966,1.7-1.966A1.557,1.557,0,0,1,5.773,3.376l.038.132,1.625-.643L7.4,2.752A3.248,3.248,0,0,0,4.185.636,3.382,3.382,0,0,0,.727,4.3a3.375,3.375,0,0,0,3.5,3.648A3.182,3.182,0,0,0,7.417,5.8l.038-.113L5.811,5.058l-.038.132Z" fill="#c7101a"/>
        <path id="패스_618" data-name="패스 618" d="M12.009.844V3.376H9.666V.844H7.908V7.78H9.666V5.02h2.344V7.78h1.758V.844Z" fill="#c7101a"/>
      </g>
    </g>
  </g>
</svg>
