<svg xmlns="http://www.w3.org/2000/svg" xmlns:xlink="http://www.w3.org/1999/xlink" width="81" height="44" viewBox="0 0 81 44">
  <defs>
    <clipPath id="clip-path">
      <rect id="사각형_240" data-name="사각형 240" width="81" height="21" transform="translate(-23073 -15619)" fill="#fff" stroke="#707070" stroke-width="1"/>
    </clipPath>
    <linearGradient id="linear-gradient" x1="0.89" y1="0.001" x2="0.111" y2="0.999" gradientUnits="objectBoundingBox">
      <stop offset="0.16" stop-color="#fff" stop-opacity="0"/>
      <stop offset="0.42" stop-color="#fff"/>
      <stop offset="0.89" stop-color="#fff"/>
    </linearGradient>
    <clipPath id="clip-path-2">
      <rect id="사각형_375" data-name="사각형 375" width="81" height="21" transform="translate(-23133 -15619)" fill="#fff" stroke="#707070" stroke-width="1"/>
    </clipPath>
    <linearGradient id="linear-gradient-2" x1="0.89" y1="0.001" x2="0.111" y2="0.999" gradientUnits="objectBoundingBox">
      <stop offset="0.16" stop-color="#6a45ed" stop-opacity="0"/>
      <stop offset="0.42" stop-color="#6a45ed"/>
      <stop offset="0.89" stop-color="#6a45ed"/>
    </linearGradient>
  </defs>
  <g id="ch-now" transform="translate(23133 15642)">
    <g id="마스크_그룹_58" data-name="마스크 그룹 58" transform="translate(-60 -23)" clip-path="url(#clip-path)">
      <g id="ch-now-w" transform="translate(-23072.902 -15618.279)">
        <path id="패스_550" data-name="패스 550" d="M.92,4.806A3.5,3.5,0,0,1,4.608,1.285,3.483,3.483,0,0,1,7.4,2.5L6.4,3.427a2.209,2.209,0,0,0-1.714-.8A2.093,2.093,0,0,0,2.5,4.806,2.093,2.093,0,0,0,4.683,6.985a2.209,2.209,0,0,0,1.714-.8L7.4,7.116A3.5,3.5,0,0,1,4.59,8.326,3.5,3.5,0,0,1,.9,4.806Z" fill="#fff"/>
        <path id="패스_551" data-name="패스 551" d="M14.723,1.4V8.2H13.14V5.4H10.048V8.2H8.464V1.4h1.583V4.079H13.14V1.4Z" fill="#fff"/>
        <path id="패스_552" data-name="패스 552" d="M76.733.54a2.36,2.36,0,0,0-2.347,2.086c0,.093-.019.186-.019.279a2.364,2.364,0,0,0,4.6.764,2.158,2.158,0,0,0,.13-.782A2.369,2.369,0,0,0,76.733.521Z" fill="#fff"/>
        <path id="패스_553" data-name="패스 553" d="M76.733,5.272a2.369,2.369,0,0,1-2.366-2.366,1.4,1.4,0,0,1,.019-.279,1.324,1.324,0,0,1,.075-.391L72.039,9.612a.264.264,0,0,0,.037.075c1.192,3.222,2.31,6.222,2.31,6.222a3.1,3.1,0,0,1,.186.913,1.961,1.961,0,0,1-.13.745L78.987,3.688a2.375,2.375,0,0,1-2.235,1.6Z" fill="url(#linear-gradient)"/>
        <path id="패스_554" data-name="패스 554" d="M44.489.279A9.519,9.519,0,1,0,54.008,9.8,9.524,9.524,0,0,0,44.489.279Zm0,14.138a4.62,4.62,0,1,1,4.62-4.62A4.619,4.619,0,0,1,44.489,14.417Z" fill="#fff"/>
        <path id="패스_555" data-name="패스 555" d="M28.47,10.487S20.8,1.379,20.777,1.36A2.326,2.326,0,0,0,16.6,2.7V18.963h4.713V9.184l7.637,9.053a2.72,2.72,0,0,1,.186.2,2.371,2.371,0,0,0,4.042-1.676V.689H28.488v9.779Z" fill="#fff"/>
        <path id="패스_556" data-name="패스 556" d="M74.386,15.889s-1.118-3-2.31-6.222c-1.378-3.707-3-7.693-3-7.693a2.4,2.4,0,0,0-4.4-.242c-.019.037-.093.186-.112.242L61.645,9.8,58.665.652H53.672L59.2,17.436a3.069,3.069,0,0,0,.54.931,2.4,2.4,0,0,0,1.788.8,2.346,2.346,0,0,0,1.919-.987,2.839,2.839,0,0,0,.373-.708l2.98-8.14s3.167,8.289,3.167,8.308a2.354,2.354,0,0,0,2.217,1.527h.074a2.39,2.39,0,0,0,2.179-1.621,2.5,2.5,0,0,0,.13-.745A3.1,3.1,0,0,0,74.386,15.889Z" fill="#fff"/>
        <path id="패스_557" data-name="패스 557" d="M28.47,10.469S20.777,1.36,20.758,1.341a2.326,2.326,0,0,0-4.173,1.341v16.28h4.731v-9.8l7.637,9.072a2.737,2.737,0,0,1,.186.2,2.371,2.371,0,0,0,4.042-1.677V.671H28.489v9.8Z" fill="#fff"/>
      </g>
    </g>
    <g id="마스크_그룹_87" data-name="마스크 그룹 87" clip-path="url(#clip-path-2)">
      <g id="그룹_178" data-name="그룹 178" transform="translate(1344.212 1179.5)">
        <path id="패스_880" data-name="패스 880" d="M119.52,43.474a2.369,2.369,0,0,1-2.366-2.366,1.382,1.382,0,0,1,.019-.279,1.334,1.334,0,0,1,.074-.391l-2.421,7.376a.283.283,0,0,0,.037.075c1.192,3.222,2.31,6.222,2.31,6.222a3.085,3.085,0,0,1,.186.913,1.963,1.963,0,0,1-.13.745l4.545-13.877a2.375,2.375,0,0,1-2.235,1.6Z" transform="translate(-24520 -16836)" fill="url(#linear-gradient-2)"/>
        <path id="패스_881" data-name="패스 881" d="M43.707,43.008A3.735,3.735,0,0,1,50.19,40.7l-1.006.931a2.209,2.209,0,0,0-1.714-.8,2.179,2.179,0,0,0,0,4.359,2.21,2.21,0,0,0,1.714-.8l1.006.931a3.749,3.749,0,0,1-6.5-2.31Z" transform="translate(-24520 -16836)" fill="#6a45ed"/>
        <path id="패스_882" data-name="패스 882" d="M57.51,39.6v6.8H55.927V43.6H52.835V46.4H51.251V39.6h1.583v2.682h3.092V39.6Z" transform="translate(-24520 -16836)" fill="#6a45ed"/>
        <path id="패스_883" data-name="패스 883" d="M119.52,38.742a2.36,2.36,0,0,0-2.347,2.086c0,.093-.019.186-.019.279a2.364,2.364,0,0,0,4.6.764,2.16,2.16,0,0,0,.131-.782,2.369,2.369,0,0,0-2.366-2.366Z" transform="translate(-24520 -16836)" fill="#6a45ed"/>
        <path id="패스_884" data-name="패스 884" d="M87.276,38.481A9.519,9.519,0,1,0,96.795,48,9.524,9.524,0,0,0,87.276,38.481Zm0,14.138A4.62,4.62,0,1,1,91.9,48,4.619,4.619,0,0,1,87.276,52.62Z" transform="translate(-24520 -16836)" fill="#6a45ed"/>
        <path id="패스_885" data-name="패스 885" d="M71.257,48.689s-7.674-9.109-7.693-9.128A2.326,2.326,0,0,0,59.391,40.9V57.165H64.1V47.385l7.637,9.053a2.724,2.724,0,0,1,.186.2,2.371,2.371,0,0,0,4.042-1.676V38.891H71.275v9.779Z" transform="translate(-24520 -16836)" fill="#6a45ed"/>
        <path id="패스_886" data-name="패스 886" d="M117.173,54.091s-1.117-3-2.31-6.222c-1.378-3.707-3-7.693-3-7.693a2.4,2.4,0,0,0-4.4-.242c-.018.037-.093.186-.111.242L104.432,48l-2.98-9.146H96.46l5.532,16.783a3.054,3.054,0,0,0,.54.931,2.4,2.4,0,0,0,1.788.8,2.347,2.347,0,0,0,1.919-.987,2.833,2.833,0,0,0,.372-.708l2.981-8.14s3.166,8.289,3.166,8.308a2.355,2.355,0,0,0,2.217,1.527h.075a2.389,2.389,0,0,0,2.179-1.62,2.489,2.489,0,0,0,.13-.745A3.085,3.085,0,0,0,117.173,54.091Z" transform="translate(-24520 -16836)" fill="#6a45ed"/>
        <path id="패스_887" data-name="패스 887" d="M71.257,48.671s-7.693-9.109-7.712-9.127a2.326,2.326,0,0,0-4.173,1.341v16.28H64.1v-9.8l7.637,9.072a2.724,2.724,0,0,1,.186.2,2.371,2.371,0,0,0,4.042-1.676V38.873H71.276v9.8Z" transform="translate(-24520 -16836)" fill="#6a45ed"/>
      </g>
    </g>
  </g>
</svg>
