<svg xmlns="http://www.w3.org/2000/svg" xmlns:xlink="http://www.w3.org/1999/xlink" width="71" height="60" viewBox="0 0 71 60">
  <defs>
    <clipPath id="clip-path">
      <rect id="사각형_232" data-name="사각형 232" width="71" height="29" transform="translate(-23575 -15622)" fill="#fff" stroke="#707070" stroke-width="1"/>
    </clipPath>
    <clipPath id="clip-path-2">
      <rect id="사각형_228" data-name="사각형 228" width="69" height="27" transform="translate(0.5 0.298)" fill="#fff"/>
    </clipPath>
    <clipPath id="clip-path-3">
      <rect id="사각형_233" data-name="사각형 233" width="71" height="29" transform="translate(-23575 -15546)" fill="#fff" stroke="#707070" stroke-width="1"/>
    </clipPath>
  </defs>
  <g id="ch-elkie" transform="translate(23581 15716)">
    <g id="마스크_그룹_50" data-name="마스크 그룹 50" transform="translate(-6 -94)" clip-path="url(#clip-path)">
      <g id="ch-elike-w" transform="translate(-23574.5 -15621.298)" clip-path="url(#clip-path-2)">
        <path id="패스_529" data-name="패스 529" d="M37.446,12.76h3.911v14.5H37.446Z" fill="#fff"/>
        <path id="패스_530" data-name="패스 530" d="M39.368,6.88A2.067,2.067,0,1,1,37.3,8.961,2.1,2.1,0,0,1,39.368,6.88Z" fill="#fff"/>
        <path id="패스_531" data-name="패스 531" d="M42.713,6.884h3.911V18.315h.211l5.395-6.38h4.493l-6.047,7.173,5.593,8.153h-4.6L48.1,22.093l-1.48,1.71V27.26H42.712V6.884Z" fill="#fff"/>
        <path id="패스_532" data-name="패스 532" d="M28.524,20.313V6.884H24.251V20.241A6.983,6.983,0,0,0,31.2,27.26h4.948V22.943H31.125a2.618,2.618,0,0,1-2.6-2.63Z" fill="#fff"/>
        <path id="패스_533" data-name="패스 533" d="M5.012,6.291l.018-.007c.005-.007.012-.007.018-.013a2.189,2.189,0,0,0,1.081-2.46L5.271,1.6A2.491,2.491,0,0,0,1.794.647a.018.018,0,0,1-.012.007.022.022,0,0,1-.012.007A2.485,2.485,0,0,0,.881,4.137L2.339,6a2.169,2.169,0,0,0,2.671.29Z" fill="#fff"/>
        <path id="패스_534" data-name="패스 534" d="M16.962,22.234H8.324V19.552h8.648a3.145,3.145,0,0,0,2.327-.8,2.5,2.5,0,0,0,0-3.415,3.139,3.139,0,0,0-2.323-.8H8.324V11.858h8.639c2.727-.007,3.022-1.762,3.022-2.516,0-1.52-1.177-2.505-3-2.507H8.68A5.572,5.572,0,0,0,4.411,8.588c-1.474,1.615-2.222,4.374-2.222,8.2,0,7.166,2,10.4,6.5,10.471h8.3c1.82,0,3-.988,3-2.51,0-.752-.294-2.5-3.023-2.516Z" fill="#fff"/>
        <path id="패스_535" data-name="패스 535" d="M69.14,22.734a1.8,1.8,0,0,0-2.513-.26A5.725,5.725,0,0,1,61.4,23.658a2.934,2.934,0,0,1-.688-.24,5.045,5.045,0,0,1-1.669-1.3c1.372.005,5.06-.231,7.535-2.743a6.03,6.03,0,0,0,1.827-5.1,2.916,2.916,0,0,0-.227-.722c-.422-.913-1.761-2.947-5.224-2.587a9.106,9.106,0,0,0-6.527,4.374,2.016,2.016,0,0,0-.592-.09,1.924,1.924,0,0,0-1.951,1.9,1.9,1.9,0,0,0,1.274,1.778,7.469,7.469,0,0,0,2.954,7.132,8.844,8.844,0,0,0,7.977.616,8.923,8.923,0,0,0,2.832-1.611,1.8,1.8,0,0,0,.213-2.317ZM63.919,14.39s1.347-.116,1.081.969a4.43,4.43,0,0,1-2.451,2.614,8.687,8.687,0,0,1-3.968.607c.055-.152.117-.308.191-.467C58.773,18.112,60.519,14.5,63.919,14.39Z" fill="#fff"/>
      </g>
    </g>
    <g id="마스크_그룹_51" data-name="마스크 그룹 51" transform="translate(-6 -139)" clip-path="url(#clip-path-3)">
      <g id="ch-elike" transform="translate(-23574.5 -15545.298)" clip-path="url(#clip-path-2)">
        <path id="패스_578" data-name="패스 578" d="M37.446,12.76h3.911v14.5H37.446Z" fill="#97999a"/>
        <path id="패스_579" data-name="패스 579" d="M39.368,6.88A2.067,2.067,0,1,1,37.3,8.961,2.1,2.1,0,0,1,39.368,6.88Z" fill="#97999a"/>
        <path id="패스_580" data-name="패스 580" d="M42.713,6.884h3.911V18.315h.211l5.395-6.38h4.493l-6.047,7.173,5.593,8.153h-4.6L48.1,22.093l-1.48,1.71V27.26H42.712V6.884Z" fill="#97999a"/>
        <path id="패스_581" data-name="패스 581" d="M28.524,20.313V6.884H24.251V20.241A6.983,6.983,0,0,0,31.2,27.26h4.948V22.943H31.125a2.618,2.618,0,0,1-2.6-2.63Z" fill="#97999a"/>
        <path id="패스_582" data-name="패스 582" d="M5.012,6.291l.018-.007c.005-.007.012-.007.018-.013a2.189,2.189,0,0,0,1.081-2.46L5.271,1.6A2.491,2.491,0,0,0,1.794.647a.018.018,0,0,1-.012.007.022.022,0,0,1-.012.007A2.485,2.485,0,0,0,.881,4.137L2.339,6a2.169,2.169,0,0,0,2.671.29Z" fill="#f9ae04"/>
        <path id="패스_583" data-name="패스 583" d="M16.962,22.234H8.324V19.552h8.648a3.145,3.145,0,0,0,2.327-.8,2.5,2.5,0,0,0,0-3.415,3.138,3.138,0,0,0-2.323-.8H8.324V11.858h8.639c2.727-.007,3.022-1.762,3.022-2.516,0-1.52-1.177-2.505-3-2.507H8.68A5.572,5.572,0,0,0,4.411,8.588c-1.474,1.615-2.222,4.374-2.222,8.2,0,7.166,2,10.4,6.5,10.471h8.3c1.82,0,3-.988,3-2.51,0-.752-.294-2.5-3.023-2.516Z" fill="#e41321"/>
        <path id="패스_584" data-name="패스 584" d="M69.14,22.734a1.8,1.8,0,0,0-2.513-.26A5.725,5.725,0,0,1,61.4,23.658a2.933,2.933,0,0,1-.688-.24,5.044,5.044,0,0,1-1.669-1.3c1.372.005,5.06-.231,7.535-2.743a6.03,6.03,0,0,0,1.827-5.1,2.92,2.92,0,0,0-.227-.722c-.422-.913-1.762-2.947-5.224-2.587a9.107,9.107,0,0,0-6.527,4.374,2.015,2.015,0,0,0-.592-.09,1.924,1.924,0,0,0-1.951,1.9,1.9,1.9,0,0,0,1.274,1.778,7.469,7.469,0,0,0,2.954,7.132,8.844,8.844,0,0,0,7.977.616,8.922,8.922,0,0,0,2.832-1.611,1.8,1.8,0,0,0,.213-2.317ZM63.919,14.39s1.347-.116,1.081.969a4.429,4.429,0,0,1-2.451,2.614,8.687,8.687,0,0,1-3.968.607c.055-.152.117-.308.191-.467C58.773,18.112,60.519,14.5,63.919,14.39Z" fill="#97999a"/>
      </g>
    </g>
  </g>
</svg>
