<svg width="190" height="66" viewBox="0 0 190 66" fill="none" xmlns="http://www.w3.org/2000/svg">
<path d="M137.386 0.942383H147.992C154.902 1.30252 152.368 5.89246 152.368 5.89246H152.383C151.202 7.20628 150.555 8.86518 150.554 10.579C150.571 12.5454 151.42 14.426 152.918 15.811C154.416 17.196 156.44 17.9731 158.549 17.9731C160.659 17.9731 162.683 17.196 164.181 15.811C165.678 14.426 166.528 12.5454 166.545 10.579C166.547 8.86537 165.901 7.20582 164.721 5.89246H164.744C164.744 5.89246 162.212 1.30252 169.122 0.942383H179.726C186.097 0.942383 189.647 3.98295 189.647 9.10185C189.647 14.0022 186.097 17.2613 179.726 17.2613H171.22C170.51 17.2885 168.119 17.5661 168.119 20.4655V33.5193C168.119 39.7233 164.105 42.8862 158.555 42.8862C153.005 42.8862 148.985 39.7233 148.985 33.5193V20.4651C148.985 17.5661 146.594 17.288 145.88 17.2608H137.386C131.005 17.2608 127.459 14.0017 127.459 9.10138C127.457 3.98296 131.005 0.942383 137.386 0.942383Z" fill="#F2F2F2"/>
<path d="M26.2744 60.4442C26.2735 59.8647 26.0884 59.2985 25.7423 58.8171C25.3963 58.3356 24.9049 57.9606 24.3303 57.7395C23.7557 57.5183 23.1237 57.4608 22.5141 57.5744C21.9045 57.688 21.3447 57.9674 20.9054 58.3775C20.4661 58.7875 20.1671 59.3098 20.0462 59.8782C19.9252 60.4466 19.9877 61.0357 20.2259 61.571C20.464 62.1063 20.867 62.5638 21.3839 62.8856C21.9009 63.2075 22.5086 63.3793 23.1303 63.3793C23.9647 63.3786 24.7647 63.0691 25.3544 62.5187C25.944 61.9682 26.275 61.222 26.2744 60.4442Z" fill="#F2F2F2"/>
<path d="M39.3746 43.1288C45.0567 43.1288 43.7009 47.4679 47.4332 47.4679C49.4329 47.4679 51.1 46.4104 51.1 44.2908C51.1 40.8676 46.1856 37.389 39.5949 37.389C29.9219 37.389 24.7871 43.2887 24.7871 51.7478C24.784 52.8842 24.894 54.0184 25.1156 55.1359C26.3017 55.5202 27.33 56.2391 28.0579 57.1929C28.7858 58.1466 29.1772 59.2878 29.1779 60.4583C29.1772 60.9436 29.1063 61.4265 28.9671 61.8942C31.324 63.8857 34.6739 65.0576 39.1044 65.0576C47.2174 65.0576 51.099 60.6219 51.099 57.3957C51.0872 57.0074 50.9921 56.6252 50.8192 56.2718C50.6463 55.9184 50.3992 55.6008 50.0925 55.3379C49.7858 55.0749 49.4256 54.872 49.0333 54.741C48.641 54.6099 48.2245 54.5535 47.8085 54.575C43.6421 54.575 44.8353 59.3136 39.3247 59.3136C34.9984 59.3136 32.6692 56.3373 32.6692 51.7474C32.6692 45.0974 36.2913 43.1288 39.3735 43.1288M14.762 42.8817C17.0897 42.8817 18.3272 42.2308 18.3272 40.4718C18.3272 38.6978 17.0902 38.0376 14.762 38.0376H12.386V33.5611C12.386 31.1405 10.8114 29.8828 8.43543 29.8828C6.05944 29.8828 4.48937 31.1405 4.48937 33.5611V38.0376H3.13511C0.919103 38.0376 0 38.8578 0 40.4718C0 42.0761 0.919103 42.8817 3.13511 42.8817H4.48937V58.5042C4.48937 62.8372 6.86586 65.0576 12.5968 65.0576C15.3586 65.0576 17.1395 64.433 17.8926 63.27C17.3586 62.4158 17.0769 61.445 17.0761 60.4564C17.081 60.1876 17.1053 59.9194 17.1491 59.6536C16.6654 59.413 16.1224 59.2951 15.5745 59.3117H14.4305C13.0269 59.3117 12.386 58.7054 12.386 57.595V42.8822L14.762 42.8817ZM130.523 59.3141H129.389C127.98 59.3141 127.33 58.7078 127.33 57.5973V42.8822H129.716C132.034 42.8822 133.276 42.2313 133.276 40.4723C133.276 38.6983 132.034 38.0381 129.716 38.0381H127.33V33.5611C127.33 31.1405 125.76 29.8828 123.384 29.8828C121.007 29.8828 119.438 31.1405 119.438 33.5611V38.0376H118.088C115.868 38.0376 114.949 38.8578 114.949 40.4718C114.949 42.0761 115.868 42.8817 118.088 42.8817H119.438V58.5042C119.438 62.8372 121.82 65.0576 127.545 65.0576C131.335 65.0576 133.276 63.8946 133.276 61.7797C133.276 60.2158 132.254 59.3136 130.523 59.3136M81.5401 44.9473C81.5401 39.6545 76.2987 37.389 68.733 37.389C60.6256 37.389 56.1911 41.1236 56.1911 44.0451C56.1911 45.5537 57.5403 46.8657 59.54 46.8657C62.6696 46.8657 62.8411 42.8329 68.6747 42.8329C71.3243 42.8329 73.643 43.7487 73.643 45.8538C73.643 47.9781 72.1368 48.3799 70.2443 48.5806L65.4329 49.0815C59.374 49.738 54.4052 51.4482 54.4052 57.5509C54.4052 62.1812 58.8367 65.0581 63.3251 65.0581C67.4915 65.0581 71.0557 63.9453 74.1365 60.7687C74.2446 63.0346 75.3791 65.0581 78.7818 65.0581C80.6799 65.0581 82.3536 63.8951 82.3536 62.2365C82.3536 61.0735 81.5411 60.3715 81.5411 57.2953L81.5401 44.9473ZM73.642 54.8798C73.642 57.5969 70.9963 60.2158 66.678 60.2158C63.974 60.2158 62.2913 58.8536 62.2913 57.1898C62.2913 54.9746 64.0772 54.0165 67.3773 53.5626L70.2448 53.156C71.1639 53.0154 72.7822 52.7649 73.6435 52.0076L73.642 54.8798ZM102.525 48.4292L99.229 47.7192C96.7941 47.2175 95.0082 46.8118 95.0082 45.0969C95.0082 43.5429 96.7936 42.832 99.5414 42.832C104.522 42.832 104.627 46.2083 107.708 46.2083C109.767 46.2083 111.009 44.6951 111.009 42.9811C111.009 39.6085 104.955 37.3872 98.9553 37.3872C93.4925 37.3872 87.1166 39.6085 87.1166 45.602C87.1166 50.5384 90.6808 52.3077 95.2824 53.3591L99.9277 54.4222C102.735 55.074 104.466 55.3797 104.466 57.2428C104.466 58.7561 102.682 59.9157 99.8694 59.9157C94.0303 59.9157 93.7073 55.3811 90.299 55.3811C88.0855 55.3811 87.1161 56.8395 87.1161 58.4475C87.1161 62.0756 93.0619 65.0571 100.196 65.0571C106.142 65.0571 112.358 62.2857 112.358 56.2923C112.358 51.1509 107.003 49.3863 102.524 48.4287" fill="#F2F2F2"/>
</svg>
