<svg xmlns="http://www.w3.org/2000/svg" width="54.297" height="23.003" viewBox="0 0 54.297 23.003">
  <g id="logo-hcn" transform="translate(23679.148 13513.502)">
    <path id="패스_909" data-name="패스 909" d="M707.31,31.842c0,.441-.2.659-.595.659h-2.13a.772.772,0,0,1-.457-.108q-.14-.113-.14-.519V22.18h-9.812v9.662c0,.441-.2.659-.6.659h-2.133a.753.753,0,0,1-.453-.108q-.143-.113-.142-.519V10.164a.933.933,0,0,1,.112-.458c.071-.137.234-.207.483-.207h2.1c.419,0,.629.224.629.665v8.9h9.812v-8.9a.912.912,0,0,1,.112-.458c.07-.137.235-.207.485-.207h2.1c.42,0,.627.224.627.665Z" transform="translate(-24370 -13523)" fill="#e60013"/>
    <path id="패스_910" data-name="패스 910" d="M714.175,31.938a4.816,4.816,0,0,1-1.36-1.072,16.18,16.18,0,0,1-1.177-1.385,3.3,3.3,0,0,1-.645-1.491,12.774,12.774,0,0,1-.109-1.752V17.208a4.712,4.712,0,0,1,.253-1.417,5.268,5.268,0,0,1,.72-1.449,13.842,13.842,0,0,1,1.678-1.946,21.2,21.2,0,0,1,2.147-1.863,4.764,4.764,0,0,1,1.851-.863,8.186,8.186,0,0,1,1.473-.172h5.42a.53.53,0,0,1,.6.6v1.957a.5.5,0,0,1-.564.567h-4.92a5.988,5.988,0,0,0-1.056.085,2.93,2.93,0,0,0-.987.439,8.691,8.691,0,0,0-1.348,1.184q-.737.8-1.41,1.653a2.192,2.192,0,0,0-.407.857,2.357,2.357,0,0,0-.1.776v8.625a3.436,3.436,0,0,0,.222,1.487,6.016,6.016,0,0,0,.562.811,2.313,2.313,0,0,0,.785.667,3.672,3.672,0,0,0,.393.124,1.94,1.94,0,0,0,.484.059h7.932a.525.525,0,0,1,.593.6v1.957a.5.5,0,0,1-.563.563h-8.053A5.128,5.128,0,0,1,714.175,31.938Z" transform="translate(-24370 -13523)" fill="#e60013"/>
    <path id="패스_911" data-name="패스 911" d="M735.713,10.951c.209.75.441,1.629.691,2.621s.51,2.05.781,3.148q.414,1.68.8,3.366.385,1.721.768,3.241c.244,1.017.479,1.947.686,2.791s.39,1.5.534,2.006a1.466,1.466,0,0,0,.438.826.988.988,0,0,0,.533.154h.094a.987.987,0,0,0,.44-.154.625.625,0,0,0,.279-.6V10.094q0-.6.633-.6h2.1a.643.643,0,0,1,.517.172.682.682,0,0,1,.138.424V29.7a1.116,1.116,0,0,1-.155.6,8.93,8.93,0,0,1-.756,1.02q-.342.4-.718.768a1.125,1.125,0,0,1-.66.35,3.687,3.687,0,0,1-.625.062h-2.762c-.144-.018-.3-.038-.472-.042a1.526,1.526,0,0,1-.5-.13,1.4,1.4,0,0,1-.489-.391,2.67,2.67,0,0,1-.419-.881q-1.229-4.329-2.194-8.728-.934-4.269-2.073-8.489-.184-.663-.453-.8a1.159,1.159,0,0,0-.549-.144h-.061a.819.819,0,0,0-.442.224.621.621,0,0,0-.277.5V31.906q0,.6-.631.6h-2.1a.648.648,0,0,1-.52-.172.637.637,0,0,1-.141-.423V12.3a1.135,1.135,0,0,1,.156-.6,8.883,8.883,0,0,1,.756-1.021c.231-.265.472-.523.72-.772a1.273,1.273,0,0,1,.657-.347,3.7,3.7,0,0,1,.63-.062h2.758c.143.019.3.036.472.051a1.434,1.434,0,0,1,.5.121,1.36,1.36,0,0,1,.488.393A2.69,2.69,0,0,1,735.713,10.951Z" transform="translate(-24370 -13523)" fill="#e60013"/>
  </g>
</svg>
