<svg xmlns="http://www.w3.org/2000/svg" xmlns:xlink="http://www.w3.org/1999/xlink" width="26" height="82" viewBox="0 0 26 82">
  <defs>
    <clipPath id="clip-path">
      <rect id="사각형_388" data-name="사각형 388" width="26" height="26" transform="translate(-23602 -16647)" fill="#fff" stroke="#707070" stroke-width="1"/>
    </clipPath>
  </defs>
  <g id="ico-login" transform="translate(23592 16596)">
    <g id="마스크_그룹_92" data-name="마스크 그룹 92" transform="translate(10 51)" clip-path="url(#clip-path)">
      <path id="패스_967" data-name="패스 967" d="M27.336,90.138a11.077,11.077,0,1,1,0,7.569m6.086-9.323,5.537,5.539m0,0-5.537,5.538m5.537-5.538H25.931" transform="translate(-23626.465 -16727.922)" fill="none" stroke="#f5f5f5" stroke-miterlimit="10" stroke-width="1.3"/>
    </g>
    <g id="마스크_그룹_93" data-name="마스크 그룹 93" transform="translate(10 79)" clip-path="url(#clip-path)">
      <path id="패스_968" data-name="패스 968" d="M27.336,90.138a11.077,11.077,0,1,1,0,7.569m6.086-9.323,5.537,5.539m0,0-5.537,5.538m5.537-5.538H25.931" transform="translate(-23626.465 -16727.922)" fill="none" stroke="#e2151e" stroke-miterlimit="10" stroke-width="1.3"/>
    </g>
    <g id="마스크_그룹_94" data-name="마스크 그룹 94" transform="translate(10 107)" clip-path="url(#clip-path)">
      <path id="패스_969" data-name="패스 969" d="M27.336,90.138a11.077,11.077,0,1,1,0,7.569m6.086-9.323,5.537,5.539m0,0-5.537,5.538m5.537-5.538H25.931" transform="translate(-23626.465 -16727.922)" fill="none" stroke="#1a1a1a" stroke-miterlimit="10" stroke-width="1.3"/>
    </g>
  </g>
</svg>
