<svg xmlns="http://www.w3.org/2000/svg" xmlns:xlink="http://www.w3.org/1999/xlink" width="26" height="82" viewBox="0 0 26 82">
  <defs>
    <clipPath id="clip-path">
      <rect id="사각형_13" data-name="사각형 13" width="26" height="26" transform="translate(-23485 -16566)" fill="#fff"/>
    </clipPath>
  </defs>
  <g id="ico-alarm" transform="translate(23481 16596)">
    <g id="마스크_그룹_2" data-name="마스크 그룹 2" transform="translate(4 26)" clip-path="url(#clip-path)">
      <path id="패스_6" data-name="패스 6" d="M345.684,26.753V25.422h2.15V14.878a7.167,7.167,0,0,1,5.835-7.054V7.1a1.285,1.285,0,0,1,.387-.943,1.357,1.357,0,0,1,1.453-.291,1.3,1.3,0,0,1,.432.291,1.28,1.28,0,0,1,.39.943v.727a7.167,7.167,0,0,1,5.835,7.054V25.422h2.15v1.331ZM355,30.233a2.131,2.131,0,0,1-2.145-2.149h4.3a2.063,2.063,0,0,1-.633,1.521,2.08,2.08,0,0,1-1.527.629Zm-5.831-4.812h11.67V14.877a5.831,5.831,0,1,0-11.662,0Z" transform="translate(-23826.684 -16571)" fill="#1a1a1a"/>
    </g>
    <g id="마스크_그룹_5" data-name="마스크 그룹 5" transform="translate(4 -2)" clip-path="url(#clip-path)">
      <path id="패스_7" data-name="패스 7" d="M345.684,26.753V25.422h2.15V14.878a7.167,7.167,0,0,1,5.835-7.054V7.1a1.285,1.285,0,0,1,.387-.943,1.357,1.357,0,0,1,1.453-.291,1.3,1.3,0,0,1,.432.291,1.28,1.28,0,0,1,.39.943v.727a7.167,7.167,0,0,1,5.835,7.054V25.422h2.15v1.331ZM355,30.233a2.131,2.131,0,0,1-2.145-2.149h4.3a2.063,2.063,0,0,1-.633,1.521,2.08,2.08,0,0,1-1.527.629Zm-5.831-4.812h11.67V14.877a5.831,5.831,0,1,0-11.662,0Z" transform="translate(-23826.684 -16571)" fill="#e2151e"/>
    </g>
    <g id="마스크_그룹_8" data-name="마스크 그룹 8" transform="translate(4 -30)" clip-path="url(#clip-path)">
      <path id="패스_10" data-name="패스 10" d="M345.684,26.753V25.422h2.15V14.878a7.167,7.167,0,0,1,5.835-7.054V7.1a1.285,1.285,0,0,1,.387-.943,1.357,1.357,0,0,1,1.453-.291,1.3,1.3,0,0,1,.432.291,1.28,1.28,0,0,1,.39.943v.727a7.167,7.167,0,0,1,5.835,7.054V25.422h2.15v1.331ZM355,30.233a2.131,2.131,0,0,1-2.145-2.149h4.3a2.063,2.063,0,0,1-.633,1.521,2.08,2.08,0,0,1-1.527.629Zm-5.831-4.812h11.67V14.877a5.831,5.831,0,1,0-11.662,0Z" transform="translate(-23826.684 -16571)" fill="#f2f2f2"/>
    </g>
  </g>
</svg>
