<svg xmlns="http://www.w3.org/2000/svg" xmlns:xlink="http://www.w3.org/1999/xlink" width="26" height="82" viewBox="0 0 26 82">
  <defs>
    <clipPath id="clip-path">
      <rect id="사각형_15" data-name="사각형 15" width="26" height="26" transform="translate(-23555 -16567)" fill="#fff" stroke="#707070" stroke-width="1"/>
    </clipPath>
  </defs>
  <g id="ico-search" transform="translate(23555 16596)">
    <g id="마스크_그룹_3" data-name="마스크 그룹 3" transform="translate(0 27)" clip-path="url(#clip-path)">
      <path id="패스_4" data-name="패스 4" d="M293.963,30l-9.17-9.169a8.067,8.067,0,0,1-2.527,1.448,8.446,8.446,0,0,1-2.87.513A8.26,8.26,0,0,1,271,14.4a8.115,8.115,0,0,1,2.436-5.958,8.385,8.385,0,0,1,11.912,0A8.1,8.1,0,0,1,287.79,14.4a8.289,8.289,0,0,1-.541,2.955,8.022,8.022,0,0,1-1.42,2.442L295,28.966Zm-14.57-8.676a6.811,6.811,0,0,0,6.93-6.93,6.931,6.931,0,1,0-13.86,0,6.811,6.811,0,0,0,6.93,6.93Z" transform="translate(-23825 -16572)" fill="#1a1a1a"/>
    </g>
    <g id="마스크_그룹_7" data-name="마스크 그룹 7" transform="translate(0 -1)" clip-path="url(#clip-path)">
      <path id="패스_9" data-name="패스 9" d="M293.963,30l-9.17-9.169a8.067,8.067,0,0,1-2.527,1.448,8.446,8.446,0,0,1-2.87.513A8.26,8.26,0,0,1,271,14.4a8.115,8.115,0,0,1,2.436-5.958,8.385,8.385,0,0,1,11.912,0A8.1,8.1,0,0,1,287.79,14.4a8.289,8.289,0,0,1-.541,2.955,8.022,8.022,0,0,1-1.42,2.442L295,28.966Zm-14.57-8.676a6.811,6.811,0,0,0,6.93-6.93,6.931,6.931,0,1,0-13.86,0,6.811,6.811,0,0,0,6.93,6.93Z" transform="translate(-23825 -16572)" fill="#e2151e"/>
    </g>
    <g id="마스크_그룹_10" data-name="마스크 그룹 10" transform="translate(0 -29)" clip-path="url(#clip-path)">
      <path id="패스_12" data-name="패스 12" d="M293.963,30l-9.17-9.169a8.067,8.067,0,0,1-2.527,1.448,8.446,8.446,0,0,1-2.87.513A8.26,8.26,0,0,1,271,14.4a8.115,8.115,0,0,1,2.436-5.958,8.385,8.385,0,0,1,11.912,0A8.1,8.1,0,0,1,287.79,14.4a8.289,8.289,0,0,1-.541,2.955,8.022,8.022,0,0,1-1.42,2.442L295,28.966Zm-14.57-8.676a6.811,6.811,0,0,0,6.93-6.93,6.931,6.931,0,1,0-13.86,0,6.811,6.811,0,0,0,6.93,6.93Z" transform="translate(-23825 -16572)" fill="#f2f2f2"/>
    </g>
  </g>
</svg>
