<svg xmlns="http://www.w3.org/2000/svg" width="34.555" height="47.324" viewBox="0 0 34.555 47.324">
  <g id="logo-echannel" transform="translate(-61.723 -19.838)">
    <path id="패스_521" data-name="패스 521" d="M69.73,30.358h.041a.02.02,0,0,0,.02-.02,3.822,3.822,0,0,0,1.922-4.31L70.2,22.143a4.449,4.449,0,0,0-6.171-1.7h-.04a4.363,4.363,0,0,0-1.578,6.131L65,29.852A3.864,3.864,0,0,0,69.73,30.358Z" fill="#f6a40e"/>
    <path id="패스_522" data-name="패스 522" d="M90.915,58.341H75.6V53.626H90.935a5.6,5.6,0,0,0,4.128-1.4,4.353,4.353,0,0,0,0-5.989,5.6,5.6,0,0,0-4.128-1.4H75.6V40.131H90.915c4.836,0,5.362-3.1,5.362-4.411,0-2.671-2.084-4.391-5.321-4.391H76.226A9.937,9.937,0,0,0,68.658,34.4c-2.61,2.833-3.946,7.668-3.946,14.386,0,12.585,3.561,18.25,11.513,18.372h14.73c3.237,0,5.321-1.74,5.321-4.411C96.277,61.436,95.751,58.361,90.915,58.341Z" fill="#e2151e"/>
  </g>
</svg>
