<svg xmlns="http://www.w3.org/2000/svg" xmlns:xlink="http://www.w3.org/1999/xlink" width="52" height="50" viewBox="0 0 52 50">
  <defs>
    <clipPath id="clip-path">
      <rect id="사각형_236" data-name="사각형 236" width="52" height="24" transform="translate(-23338 -15621)" fill="#fff" stroke="#707070" stroke-width="1"/>
    </clipPath>
    <clipPath id="clip-path-2">
      <rect id="사각형_237" data-name="사각형 237" width="52" height="24" transform="translate(-23337 -15546)" fill="#fff" stroke="#707070" stroke-width="1"/>
    </clipPath>
  </defs>
  <g id="ch-mx" transform="translate(23351 15716)">
    <g id="마스크_그룹_54" data-name="마스크 그룹 54" transform="translate(-13 -95)" clip-path="url(#clip-path)">
      <g id="ch-mx-w" transform="translate(-23337.076 -15620.813)">
        <path id="패스_536" data-name="패스 536" d="M19.5,4.705,17.888,6.377l-4.9,4.994h.019l-.19.19-.19.171-.19-.171-.171-.19L5.886,4.705H3.968V22.784H7.6V12.472l.817.835,4.368,4.425,4.368-4.425.741-.76V22.784H21.42V4.705Z" fill="#fff"/>
        <path id="패스_537" data-name="패스 537" d="M40.962.813,37.3,5.75,33.651.813H29.815l5.564,7.52,2.127,2.849L39.4,8.6,45.178.813Z" fill="#fff"/>
        <path id="패스_538" data-name="패스 538" d="M35.055,8.769,29.168.813H17.755L12.78,5.864,7.8.813H.075V22.784H3.437V4.174H6.1L7.577,5.712l5.051,5.26,6.646-6.818h2.659v18.61h6.95l6.02-8.147L37.144,11.6,35.036,8.75ZM25.389,1.781l7.425,10.027L25.389,21.835Z" fill="#fff"/>
        <path id="패스_539" data-name="패스 539" d="M49.925.813H45.842L37.828,11.618l8.261,11.166h3.836L41.778,11.808Z" fill="#fff"/>
        <path id="패스_540" data-name="패스 540" d="M39.537,14.827l-2.032-2.754L29.548,22.784h4.1L37.3,17.866l3.665,4.919h4.482Z" fill="#fff"/>
      </g>
    </g>
    <g id="마스크_그룹_55" data-name="마스크 그룹 55" transform="translate(-14 -144)" clip-path="url(#clip-path-2)">
      <g id="ch-mx-2" data-name="ch-mx" transform="translate(-23336.074 -15544.813)">
        <path id="패스_591" data-name="패스 591" d="M19.5,4.705,17.888,6.377l-4.9,4.994h.019l-.19.19-.19.171-.19-.171-.171-.19L5.886,4.705H3.968V22.784H7.6V12.472l.817.835,4.368,4.425,4.368-4.425.741-.76V22.784H21.42V4.705Z" fill="#026085"/>
        <path id="패스_592" data-name="패스 592" d="M40.962.813,37.3,5.75,33.65.813H29.814l5.564,7.52,2.127,2.849L39.4,8.6,45.177.813Z" fill="#026085"/>
        <path id="패스_593" data-name="패스 593" d="M35.055,8.769,29.168.813H17.755L12.78,5.864,7.8.813H.075V22.784H3.436V4.174H6.1L7.576,5.712l5.051,5.26,6.647-6.818h2.659v18.61h6.95l6.02-8.147L37.144,11.6,35.036,8.75ZM25.389,1.781l7.425,10.027L25.389,21.835Z" fill="#026085"/>
        <path id="패스_594" data-name="패스 594" d="M49.924.813H45.841L37.828,11.618l8.261,11.166h3.836L41.778,11.808Z" fill="#026085"/>
        <path id="패스_595" data-name="패스 595" d="M39.537,14.827l-2.032-2.754L29.548,22.784h4.1L37.3,17.866l3.665,4.919h4.482Z" fill="#026085"/>
      </g>
    </g>
  </g>
</svg>
