<svg xmlns="http://www.w3.org/2000/svg" width="83" height="32" viewBox="0 0 83 32">
  <g id="ch-screen" transform="translate(21192.004 14391.798)">
    <g id="그룹_197" data-name="그룹 197" transform="translate(894 590)">
      <path id="패스_977" data-name="패스 977" d="M32.6,135.139a4.078,4.078,0,0,1-1.849,3.45,8.4,8.4,0,0,1-5.012,1.333,14.268,14.268,0,0,1-3.189-.314A17.953,17.953,0,0,1,20,138.824v-3.449h.429a9.356,9.356,0,0,0,2.626,1.411,8.439,8.439,0,0,0,2.814.5,6.2,6.2,0,0,0,.911-.052,3.451,3.451,0,0,0,.911-.183,2.4,2.4,0,0,0,.724-.444,1.051,1.051,0,0,0,.295-.784.961.961,0,0,0-.429-.81,2.851,2.851,0,0,0-1.206-.523c-.563-.131-1.152-.261-1.769-.366a15.218,15.218,0,0,1-1.742-.418,5.555,5.555,0,0,1-2.68-1.594,3.942,3.942,0,0,1-.831-2.509,3.882,3.882,0,0,1,1.849-3.292,8.31,8.31,0,0,1,4.77-1.281,15.019,15.019,0,0,1,2.868.288,14.852,14.852,0,0,1,2.466.679v3.319h-.4a8.076,8.076,0,0,0-4.8-1.646,6,6,0,0,0-.965.052,5.1,5.1,0,0,0-.911.235,1.873,1.873,0,0,0-.67.444,1.023,1.023,0,0,0,.188,1.542,4.714,4.714,0,0,0,1.688.549c.536.1,1.045.209,1.554.313s1.045.236,1.635.419a5.359,5.359,0,0,1,2.492,1.463,3.608,3.608,0,0,1,.8,2.43" transform="translate(-22106.004 -15089.798)" fill="#f9be00"/>
      <path id="패스_978" data-name="패스 978" d="M41.6,139.948a9.287,9.287,0,0,1-3.028-.471,6.369,6.369,0,0,1-2.385-1.411,6.182,6.182,0,0,1-1.554-2.326,8.662,8.662,0,0,1-.563-3.24,8.824,8.824,0,0,1,.536-3.11,6.333,6.333,0,0,1,1.528-2.378,6.793,6.793,0,0,1,2.385-1.489A9.214,9.214,0,0,1,41.628,125a11.15,11.15,0,0,1,1.688.105,10.016,10.016,0,0,1,1.394.261c.429.131.831.261,1.206.418.348.157.7.287.938.418v3.5h-.429c-.188-.157-.429-.34-.7-.549q-.442-.313-.965-.627a8.019,8.019,0,0,0-1.179-.523,4.689,4.689,0,0,0-1.367-.209,4.283,4.283,0,0,0-1.528.261,3.75,3.75,0,0,0-1.34.811,3.992,3.992,0,0,0-.938,1.463,5.919,5.919,0,0,0-.348,2.2,5.411,5.411,0,0,0,.4,2.274,4.565,4.565,0,0,0,.965,1.437,3.512,3.512,0,0,0,1.367.758,4.781,4.781,0,0,0,1.447.235,5.292,5.292,0,0,0,1.394-.209,5.412,5.412,0,0,0,1.26-.549,10.9,10.9,0,0,0,.911-.6c.268-.209.509-.392.7-.549h.4v3.45c-.375.157-.724.313-1.045.444-.348.131-.7.261-1.072.366q-.724.2-1.367.313a10.367,10.367,0,0,1-1.742.1" transform="translate(-22106.004 -15089.798)" fill="#f9be00"/>
      <path id="패스_979" data-name="패스 979" d="M62.559,139.66H58.191l-3.538-5.278H52.884v5.278H49.105v-14.4h6.378a14.261,14.261,0,0,1,2.251.157,5.527,5.527,0,0,1,1.769.627,3.734,3.734,0,0,1,1.313,1.255,3.522,3.522,0,0,1,.509,1.933,4.091,4.091,0,0,1-.75,2.588,5.657,5.657,0,0,1-2.171,1.672Zm-5.172-9.982a1.825,1.825,0,0,0-.241-.941,1.538,1.538,0,0,0-.777-.6,3.1,3.1,0,0,0-.911-.183c-.348,0-.75-.026-1.206-.026H52.884v3.867h1.179a12.588,12.588,0,0,0,1.528-.078,2.172,2.172,0,0,0,1.045-.392,2.222,2.222,0,0,0,.59-.653,2.015,2.015,0,0,0,.188-.967" transform="translate(-22106.004 -15089.798)" fill="#f9be00"/>
      <path id="패스_980" data-name="패스 980" d="M74.431,139.66H63.764v-14.4H74.431v2.8H67.543v2.482h6.405v2.77H67.543v3.554h6.888Z" transform="translate(-22106.004 -15089.798)" fill="#f9be00"/>
      <path id="패스_981" data-name="패스 981" d="M87.483,139.66H76.789v-14.4H87.483v2.8H80.568v2.482h6.405v2.77H80.568v3.554h6.914Z" transform="translate(-22106.004 -15089.798)" fill="#f9be00"/>
      <path id="패스_982" data-name="패스 982" d="M103,139.66H99.328l-6.271-9.878v9.878H89.573v-14.4h4.556l5.387,8.258v-8.258H103Z" transform="translate(-22106.004 -15089.798)" fill="#f9be00"/>
    </g>
    <g id="그룹_196" data-name="그룹 196" transform="translate(894 479)">
      <path id="패스_1035" data-name="패스 1035" d="M32.6,229.139a4.078,4.078,0,0,1-1.849,3.45,8.4,8.4,0,0,1-5.012,1.333,14.268,14.268,0,0,1-3.189-.314A17.953,17.953,0,0,1,20,232.824v-3.449h.429a9.356,9.356,0,0,0,2.626,1.411,8.439,8.439,0,0,0,2.814.5,6.2,6.2,0,0,0,.911-.052,3.451,3.451,0,0,0,.911-.183,2.4,2.4,0,0,0,.724-.444,1.051,1.051,0,0,0,.295-.784.961.961,0,0,0-.429-.81,2.851,2.851,0,0,0-1.206-.523c-.563-.131-1.152-.261-1.769-.366a15.218,15.218,0,0,1-1.742-.418,5.555,5.555,0,0,1-2.68-1.594,3.942,3.942,0,0,1-.831-2.509,3.881,3.881,0,0,1,1.849-3.292,8.31,8.31,0,0,1,4.77-1.281,15.022,15.022,0,0,1,2.868.288,14.851,14.851,0,0,1,2.466.679v3.319h-.4a8.076,8.076,0,0,0-4.8-1.646,6,6,0,0,0-.965.052,5.1,5.1,0,0,0-.911.235,1.86,1.86,0,0,0-.67.444,1.023,1.023,0,0,0,.188,1.542,4.714,4.714,0,0,0,1.688.549c.536.1,1.045.209,1.554.313s1.045.236,1.635.419a5.359,5.359,0,0,1,2.492,1.463,3.608,3.608,0,0,1,.8,2.43" transform="translate(-22106.004 -15089.798)" fill="#fff"/>
      <path id="패스_1036" data-name="패스 1036" d="M41.6,233.948a9.287,9.287,0,0,1-3.028-.471,6.369,6.369,0,0,1-2.385-1.411,6.182,6.182,0,0,1-1.554-2.326,8.662,8.662,0,0,1-.563-3.24,8.824,8.824,0,0,1,.536-3.11,6.333,6.333,0,0,1,1.528-2.378,6.793,6.793,0,0,1,2.385-1.489A9.215,9.215,0,0,1,41.628,219a11.151,11.151,0,0,1,1.688.1,10.017,10.017,0,0,1,1.394.261c.429.131.831.261,1.206.418.348.157.7.287.938.418v3.5h-.429c-.188-.157-.429-.34-.7-.549q-.442-.313-.965-.627a8.019,8.019,0,0,0-1.179-.523,4.689,4.689,0,0,0-1.367-.209,4.283,4.283,0,0,0-1.528.261,3.75,3.75,0,0,0-1.34.811,3.992,3.992,0,0,0-.938,1.463,5.919,5.919,0,0,0-.348,2.2,5.411,5.411,0,0,0,.4,2.274,4.565,4.565,0,0,0,.965,1.437,3.512,3.512,0,0,0,1.367.758,4.781,4.781,0,0,0,1.447.235,5.292,5.292,0,0,0,1.394-.209,5.412,5.412,0,0,0,1.26-.549,10.9,10.9,0,0,0,.911-.6c.268-.209.509-.392.7-.549h.4v3.45c-.375.157-.724.313-1.045.444-.348.131-.7.261-1.072.366q-.724.2-1.367.313a10.367,10.367,0,0,1-1.742.1" transform="translate(-22106.004 -15089.798)" fill="#fff"/>
      <path id="패스_1037" data-name="패스 1037" d="M62.559,233.66H58.19l-3.538-5.278H52.884v5.278H49.1v-14.4h6.378a14.26,14.26,0,0,1,2.251.157,5.526,5.526,0,0,1,1.769.627,3.734,3.734,0,0,1,1.313,1.255,3.519,3.519,0,0,1,.509,1.933,4.091,4.091,0,0,1-.75,2.588,5.657,5.657,0,0,1-2.171,1.672Zm-5.172-9.982a1.825,1.825,0,0,0-.241-.941,1.538,1.538,0,0,0-.777-.6,3.1,3.1,0,0,0-.911-.183c-.348,0-.75-.026-1.206-.026H52.884v3.867h1.179a12.588,12.588,0,0,0,1.528-.078,2.172,2.172,0,0,0,1.045-.392,2.222,2.222,0,0,0,.59-.653,2.015,2.015,0,0,0,.188-.967" transform="translate(-22106.004 -15089.798)" fill="#fff"/>
      <path id="패스_1038" data-name="패스 1038" d="M74.431,233.66H63.765v-14.4H74.431v2.8H67.543v2.483h6.405v2.77H67.543v3.554h6.888Z" transform="translate(-22106.004 -15089.798)" fill="#fff"/>
      <path id="패스_1039" data-name="패스 1039" d="M87.483,233.66H76.789v-14.4H87.483v2.8H80.568v2.483h6.405v2.77H80.568v3.554h6.914Z" transform="translate(-22106.004 -15089.798)" fill="#fff"/>
      <path id="패스_1040" data-name="패스 1040" d="M103,233.66H99.328l-6.271-9.878v9.878H89.573v-14.4h4.556l5.387,8.258v-8.258H103Z" transform="translate(-22106.004 -15089.798)" fill="#fff"/>
    </g>
  </g>
</svg>
